<svg width="157" height="33" viewBox="0 0 157 33" fill="none" xmlns="http://www.w3.org/2000/svg">
<mask id="mask0_950_299" style="mask-type:alpha" maskUnits="userSpaceOnUse" x="0" y="0" width="157" height="33">
<path d="M15.5313 23.6969C15.768 24.5303 15.6914 25.3661 15.3526 25.7735C14.5358 25.8108 13.8907 25.841 12.5866 25.7409L12.4705 10.3246L7.34223 10.2548C6.4558 9.23975 6.4326 7.77541 7.37936 6.71848L25.9132 6.69287C26.1754 7.91277 26.1429 8.95806 25.6951 10.164L15.5893 10.3339C16.4247 14.8201 16.3597 19.2014 15.529 23.6992L15.5313 23.6969Z" fill="white"/>
<path d="M29.1386 27.2452V3.60854L1.64994 3.6132C1.49678 2.8496 1.49678 2.30251 1.65458 1.5459H31.227V27.2428C30.459 27.3918 29.9113 27.3918 29.1386 27.2475V27.2452Z" fill="white"/>
<path d="M30.9325 28.863C31.3826 29.4916 31.3432 30.2203 31.1204 30.9373L1.55957 30.942V5.24271C2.32534 5.09371 2.87529 5.09371 3.6457 5.23805V28.8747L30.9325 28.8607V28.863Z" fill="white"/>
<path d="M48.4267 25.1008C47.1411 25.4174 46.0621 25.3453 44.7487 25.1823L44.7556 10.3364L39.089 10.2828C38.959 9.0187 38.9451 7.99902 39.1029 6.69531H54.0446C54.2024 8.00134 54.1862 9.01637 54.0632 10.3038L48.3895 10.3317L48.429 25.1031L48.4267 25.1008Z" fill="white"/>
<path d="M77.5489 22.6192L84.2412 22.7123L84.3665 24.9822C82.2827 25.7062 79.9622 26.0298 77.6046 25.6922C74.458 25.0916 72.8824 22.2048 73.4416 19.0736C72.9705 16.4266 73.7758 13.8891 75.9083 12.2664C77.9735 11.6122 80.2198 11.6122 82.299 12.2711C84.8097 14.1917 85.3458 17.3998 84.5916 20.1655L76.4467 20.1166C76.5395 21.0641 76.9038 21.6019 77.5443 22.6169L77.5489 22.6192ZM81.0761 17.5557C81.4914 16.2963 81.0528 15.2649 80.1386 14.6806C79.2591 14.222 78.1615 14.371 77.3749 15.0484C76.7599 15.6048 76.2819 16.3708 76.5464 17.5255L81.0737 17.5581L81.0761 17.5557Z" fill="white"/>
<path d="M93.1172 11.5983C94.057 11.0279 95.0919 11.2211 95.686 11.9987L95.8275 20.0048C96.0758 22.6867 98.2896 24.193 100.96 23.6645C103.536 24.1813 105.88 22.6797 106.175 20.1166L106.161 6.76758H108.76L108.778 20.6218C108.233 24.3769 104.817 26.9005 100.954 26.237C97.0992 26.8982 93.6695 24.3652 93.1334 20.6287L93.1172 11.5959V11.5983Z" fill="white"/>
<path d="M61.9667 25.2033L61.7671 15.3021C60.2101 14.3174 58.6182 14.6526 57.2654 15.5582L57.2375 25.1893C56.1144 25.3407 55.2512 25.3453 54.1118 25.1847L54.1234 11.7402C56.488 12.1011 58.5997 12.2431 60.8413 11.7775C63.547 11.568 65.0762 13.2162 65.2781 15.7934L65.5774 25.1963L61.9667 25.2033Z" fill="white"/>
<path d="M119.218 15.6632C118.71 13.9986 117.243 13.6727 115.802 13.8939C114.431 13.8031 113.336 14.9485 112.955 16.5851L112.913 26.2325H109.79L109.801 11.9313C111.133 11.7102 112.27 11.8638 113.54 12.3713C115.424 11.2655 117.338 11.063 119.155 12.1409C121.267 12.7275 121.831 14.9275 122.079 17.223L122.295 26.2325H119.16L119.216 15.6632H119.218Z" fill="white"/>
<path d="M147.298 12.1151L141.564 26.8749C141.685 28.5465 140.97 29.8944 139.982 30.7139C138.777 31.9128 137.193 32.283 135.387 31.8476C134.577 31.2214 134.561 30.0853 134.99 29.4241C136.211 30.2203 137.244 29.8804 138.125 29.3613C138.9 28.8188 139.03 27.7666 139.418 26.4861L133.837 12.0499C134.642 11.6961 135.974 11.6123 136.923 12.2362L140.787 22.738L143.957 13.7145C144.045 12.9835 144.363 12.3619 144.655 12.0686C145.321 11.8358 145.918 11.5983 147.301 12.1128L147.298 12.1151Z" fill="white"/>
<path d="M17.3272 25.3103C17.0395 24.2022 17.0952 23.2873 17.2483 22.1861L22.3697 22.1488L22.4114 11.938C23.4487 11.0255 24.9477 11.0208 25.9966 11.9427L26.0337 25.2521L17.3272 25.3103Z" fill="white"/>
<path d="M131.28 24.0721C132.505 24.1373 132.974 24.2537 133.408 24.3119C133.847 24.5074 133.888 25.1081 133.751 25.5318C133.886 26.2535 132.993 26.7098 132.204 26.1953C130.206 26.7074 128.591 25.6202 128.526 23.7322V14.0266L126.811 13.8124C126.335 13.6588 126.277 13.0488 126.426 12.6135C126.386 12.0664 127.201 11.5868 128.238 11.9034C128.902 10.2086 128.428 8.62088 128.521 6.76078L131.111 6.75146L131.164 11.7614L132.872 11.9686C133.345 12.2177 133.366 12.9953 133.201 13.6634C132.721 13.8241 132.141 13.9847 131.129 14.0126L131.28 24.0744V24.0721Z" fill="white"/>
<path d="M92.2563 15.3743C90.6041 15.4325 89.4972 15.7352 88.5041 16.6152L88.453 25.2033H85.3389L85.2925 12.157C86.4156 11.4493 88.0144 11.6937 89.0378 12.9532C90.1957 12.171 91.1726 11.6751 92.551 11.8753C92.7343 13.0952 92.797 14.1079 92.2563 15.3743Z" fill="white"/>
<path d="M74.2979 25.166C73.1098 25.3871 71.7778 25.4128 70.5572 24.9541L68.123 20.5658C66.9001 20.4564 65.8907 19.8208 66.0207 18.8337C65.784 17.6348 66.4616 16.8083 67.7889 16.6616L70.548 12.1499C71.8057 11.7285 73.0657 11.7285 74.3837 11.959L70.6269 18.126L74.2979 25.166Z" fill="white"/>
<path d="M53.1211 25.108C51.8286 25.413 50.7403 25.3455 49.4292 25.1849V11.9336C50.7403 11.7777 51.7706 11.7847 53.077 11.9383L53.1211 25.1104V25.108Z" fill="white"/>
<path d="M125.973 25.555C125.142 26.4885 123.971 26.5235 122.81 26.165L122.801 11.9243L125.931 11.9336L125.973 25.555Z" fill="white"/>
<path d="M56.7294 30.856C55.8151 30.0039 56.0565 27.9296 57.7295 28.4767C58.1612 28.4558 58.4675 28.6164 58.6577 28.7887C58.7575 29.5662 59.34 29.2473 59.3469 29.1146C59.2796 28.3324 59.2541 28.0018 59.449 27.329C61.4122 28.9679 64.3963 29.692 66.3015 27.3267C66.4709 27.8132 66.5938 28.2951 66.9234 28.6839C68.3087 28.5396 69.4481 28.2881 70.6547 28.6257L69.9818 30.8932C69.643 30.849 69.0745 30.7372 68.4363 30.7698C67.9026 30.9863 67.4246 30.8909 67.1322 30.7116C66.8305 30.3904 66.689 30.0551 66.3618 29.366C65.9604 29.7781 66.1762 30.558 65.7237 30.8304C65.6123 29.8223 65.603 29.3102 65.3245 28.8795C65.0182 29.1402 64.814 29.3521 64.7723 29.394C64.6678 29.7059 64.5565 30.0039 64.64 30.5231L58.4953 30.7559L58.0474 28.8026C57.6066 29.4941 57.7017 29.9085 57.6738 30.5463C57.6205 30.8606 57.2446 31.1353 56.7248 30.8606L56.7294 30.856ZM61.1453 28.8795L61.136 29.2147V29.5616L61.1453 29.8968L61.1546 29.5616V29.2147L61.1453 28.8795ZM62.7047 28.8748L62.4448 29.1332L62.7047 29.3916L62.9646 29.1332L62.7047 28.8748ZM67.9096 28.8795L67.9003 29.2147V29.5616L67.9096 29.8968L67.9189 29.5616V29.2147L67.9096 28.8795Z" fill="white"/>
<path d="M66.4639 15.4652C65.3848 13.6424 64.9973 11.9778 63.0713 11.142C62.8369 9.66839 62.8764 8.35537 63.0597 6.74437C64.0366 5.88532 65.5241 5.86902 66.5753 6.76998L66.4639 15.4629V15.4652Z" fill="white"/>
<path d="M95.2288 30.4229C94.8853 29.8921 94.7136 29.8944 94.7182 30.4276C94.1567 30.7535 93.2378 30.8908 92.5787 30.6185C92.7435 29.8362 92.7412 29.5592 92.3908 28.8771C92.3281 28.9399 92.1889 29.0517 92.0172 29.4102C91.9615 29.8642 91.8315 29.8479 91.6343 29.4032C91.205 29.1145 91.1493 28.5977 91.5972 28.3626C92.1587 28.3859 92.6112 28.4999 93.4373 28.7071C93.5905 28.4115 93.4884 27.4477 94.3818 27.4058C95.4446 28.0879 96.809 29.4102 98.0923 28.6629C98.6097 29.4754 98.0319 30.8862 96.8183 31.4635C96.9622 30.2902 96.7464 29.1308 95.7996 29.0005C95.7903 29.8828 96.1477 30.225 96.3008 30.6604C96.1778 30.8769 95.9272 31.0864 95.5003 30.956C95.4098 30.8536 95.2844 30.6511 95.2311 30.4322L95.2288 30.4229Z" fill="white"/>
<path d="M73.1283 29.9011C72.8382 30.6927 72.7222 31.0675 72.5365 31.3934C71.8729 31.6146 71.0607 31.554 70.7289 31.0954C70.6778 29.943 70.6639 29.3191 71.2324 28.5672C71.6617 28.3925 72.4692 28.3669 73.2953 28.6207C74.0193 28.2529 74.7898 28.3343 75.2214 28.8605C75.4325 29.2795 74.9963 30.0059 74.9011 30.6903C74.2908 31.2863 73.3557 30.7043 73.1283 29.8988V29.9011ZM74.1539 28.8745L73.894 29.1329L74.1539 29.3913L74.4138 29.1329L74.1539 28.8745Z" fill="white"/>
<path d="M83.791 28.353C84.2412 28.5137 84.2296 28.6883 83.7771 28.8745C83.8258 29.4193 84.0648 30.3668 83.4244 30.7858C82.8721 30.5786 82.0831 30.723 81.4659 30.113C80.5214 30.8743 79.4633 30.8953 78.4446 30.4553C77.9202 30.7858 77.6835 30.6229 77.8691 30.0059C78.6534 29.8849 79.3009 29.3518 79.7603 28.3856C81.271 28.6254 82.5171 28.4904 83.7933 28.353H83.791ZM80.3985 28.8792L80.3892 29.2144V29.5613L80.3985 29.8965L80.4077 29.5613V29.2144L80.3985 28.8792Z" fill="white"/>
<path d="M123.407 6.28087C124.372 5.97357 125.179 6.11791 125.704 6.665C126.047 7.42627 126.154 8.55769 125.683 9.25611C124.667 9.3469 123.599 9.44468 122.819 9.04891C122.671 8.05949 122.664 7.00489 123.407 6.28087Z" fill="white"/>
<path d="M47.7792 30.7769C47.8117 29.6059 47.5286 28.6631 46.9299 27.9484L48.0136 27.3594C48.8188 28.6584 49.9884 29.2428 51.6614 28.13C52.1743 28.9331 52.2601 29.7479 51.8355 30.9469C51.3366 30.891 50.4176 30.593 49.5289 30.8933C48.733 30.7583 48.907 29.599 48.6355 28.9005C48.3478 29.6222 48.777 30.5185 47.7792 30.7746V30.7769ZM51.2577 28.8749L50.9978 29.1333L51.2577 29.3918L51.5176 29.1333L51.2577 28.8749Z" fill="white"/>
<path d="M57.7317 28.479C57.1005 29.0982 56.8847 30.0015 56.7316 30.8582C56.2721 31.1004 55.8335 30.9444 55.7593 30.5766C55.7129 30.1622 55.6943 29.8549 55.6688 29.3986C55.6734 28.9283 55.5226 28.6443 55.3532 28.4371C55.149 28.3253 54.8914 28.2834 54.6408 28.3509C54.3391 28.6559 54.172 28.6583 54.1349 28.3556C53.7938 28.3812 53.1835 28.5093 52.8586 27.6339C54.6547 26.8214 56.3904 27.3313 57.734 28.479H57.7317Z" fill="white"/>
<path d="M48.016 27.3594L47.7817 30.7769L47.0368 28.2883C46.7931 29.5687 46.93 30.3626 45.851 31.033C46.025 29.3755 45.5238 28.6282 44.5515 27.4921L48.0183 27.3594H48.016Z" fill="white"/>
<path d="M87.7058 28.877C87.2997 29.8082 87.4064 30.1108 87.4296 30.6579C87.476 30.7091 87.1628 31.1491 86.8982 30.7045C86.7381 30.4647 86.5548 30.2808 86.3552 29.5451C86.1649 29.3845 85.5314 29.7826 85.7078 30.8116C85.065 30.3483 85.2924 29.1447 85.3667 28.5627C86.4921 28.1576 87.4134 28.3369 88.2302 28.3997C88.6595 29.2145 88.692 30.3413 88.0794 31.0188C87.961 29.9618 88.0376 29.3635 87.7058 28.8793V28.877Z" fill="white"/>
<path d="M91.061 28.3577L91.6319 29.3984L92.0147 29.4053C92.0658 29.7802 92.263 30.2714 91.9173 30.8464C91.6551 30.7603 91.4276 30.7114 90.7385 30.6555C90.2279 31.2142 88.8937 31.2259 89.012 30.1736C88.4783 29.5846 89.2696 28.0202 89.432 28.7698C89.2092 30.6345 90.6015 29.2517 90.0539 29.0445C90.3533 28.2134 90.7965 28.3601 91.0633 28.3577H91.061Z" fill="white"/>
<path d="M77.8668 30.006L78.4423 30.4553C77.7183 31.3749 76.6671 30.7673 76.572 30.0503C76.2239 28.9863 76.3028 28.0318 77.47 27.5686C77.7879 27.1076 79.0085 27.2682 78.9319 28.3252C77.9573 28.3834 77.5002 28.6069 77.0175 29.1121C77.2264 29.3542 77.5536 29.7197 77.8668 30.0037V30.006Z" fill="white"/>
<path d="M54.6385 28.3487C54.6501 29.2054 54.8497 30.1274 54.3647 30.9794C53.9099 29.9411 54.1257 29.124 54.1326 28.3534C54.0677 27.7714 54.6571 27.8086 54.6385 28.3487Z" fill="white"/>
<path d="M83.7771 28.8746L83.791 28.3531C84.5011 28.1063 85.0023 28.6348 84.8213 29.1516C84.8608 29.722 85.0395 30.2062 84.5173 30.9605C84.2737 30.2388 84.3015 29.4915 83.7771 28.8746Z" fill="white"/>
<path d="M91.6342 29.3985C91.0611 29.4288 90.8708 28.8258 91.0634 28.3579H91.5971L91.6342 29.3985Z" fill="white"/>
<path d="M95.2289 30.423L94.7184 30.4277C94.7045 30.2042 94.6975 29.9458 94.7137 29.6478C94.8715 29.2474 95.2312 29.4615 95.2289 29.6757C95.2428 30.0063 95.2335 30.2182 95.2289 30.423Z" fill="white"/>
</mask>
<g mask="url(#mask0_950_299)">
<rect x="-18.1267" y="-6.04199" width="186.38" height="45.0845" fill="#D9D9D9"/>
<rect x="-18.1267" y="-6.04199" width="186.38" height="45.0845" fill="url(#paint0_linear_950_299)"/>
</g>
<defs>
<linearGradient id="paint0_linear_950_299" x1="74.2669" y1="-6.04199" x2="74.2669" y2="39.0425" gradientUnits="userSpaceOnUse">
<stop stop-color="white"/>
<stop offset="1" stop-color="#B0BAE9"/>
</linearGradient>
</defs>
</svg>
