<svg width="216" height="28" viewBox="0 0 216 28" fill="none" xmlns="http://www.w3.org/2000/svg">
<path d="M1.84208 -2.79546e-05C1.87835 0.246201 1.94592 0.492884 1.94637 0.739566C1.95181 8.91909 1.95091 17.0986 1.95091 25.2781V26.0023H2.68325H47.5486C48.2828 26.0023 48.2828 26.0028 48.2832 26.7337C48.2837 27.9622 48.2837 27.9622 47.0417 27.9622H0.816803C0.000120763 27.9622 0.000120829 27.9622 0.000120829 27.1251C0.000120829 18.3293 -0.00169321 9.53262 0.00873639 0.736845C0.00918985 0.49107 0.14024 0.245294 0.210526 -2.79546e-05H1.84208Z" fill="white"/>
<path d="M101.889 13.053V2.0679H101.178C86.2224 2.0679 71.2673 2.0679 56.3122 2.06744C55.588 2.06744 55.588 2.06744 55.588 1.32921C55.5875 0.115748 55.588 0.115748 56.8173 0.115748H103.151C103.874 0.115748 103.874 0.115748 103.874 0.856702V27.2449C103.874 27.9659 103.873 27.9659 103.185 27.9664C101.916 27.9673 101.916 27.9673 101.916 26.6854V15.7493V15.0541H57.5447V27.9614C56.9497 27.9614 56.4124 27.9745 55.8773 27.9492C55.7794 27.9442 55.6488 27.7959 55.6066 27.6857C55.5581 27.5578 55.5884 27.3996 55.5884 27.2545C55.588 22.7384 55.5966 18.2224 55.5762 13.7064C55.5739 13.1881 55.7068 13.0412 56.2342 13.0416C71.207 13.0557 86.1802 13.053 101.154 13.053H101.889Z" fill="white"/>
<path d="M212.957 2.06043H166.792V0.0996671H167.45C183.077 0.0996671 198.703 0.101934 214.329 0.0883299C214.856 0.0878764 215.042 0.184463 215.038 0.766253C215.011 5.3004 215.014 9.83501 215.035 14.3692C215.037 14.892 214.892 15.0321 214.37 15.0317C199.397 15.0181 184.423 15.0208 169.449 15.0208H168.689V15.7214C168.689 19.603 168.681 23.4837 168.699 27.3653C168.701 27.8301 168.602 28.0306 168.102 27.9802C167.677 27.9372 167.243 27.9716 166.779 27.9716V13.0646H212.957V2.06043Z" fill="white"/>
<path d="M113.022 27.9525H111.201V13.0704H157.353V2.0894H111.198V0.13045C111.38 0.120474 111.571 0.100976 111.762 0.100976C127.422 0.0991623 143.083 0.102335 158.744 0.0878244C159.263 0.0873709 159.369 0.250163 159.367 0.733552C159.351 5.24911 159.358 9.76467 159.358 14.2802C159.358 15.0203 159.357 15.0207 158.633 15.0207H113.771H113.022V27.9525Z" fill="white"/>
<path d="M23.148 10.3082C23.148 7.09815 23.1557 3.88765 23.139 0.677602C23.1367 0.236385 23.2451 0.082662 23.7094 0.088557C25.1115 0.106242 25.1115 0.0867439 25.1115 1.4698C25.1115 7.61782 25.1052 13.7663 25.1228 19.9148C25.1242 20.429 25.0013 20.5995 24.4676 20.585C23.1485 20.5491 23.148 20.5754 23.148 19.2318V10.3082Z" fill="white"/>
<path d="M46.3481 20.5723V0.103521C46.9177 0.103521 47.4714 0.091731 48.0228 0.116671C48.1126 0.120299 48.2277 0.275836 48.2708 0.38512C48.3139 0.495764 48.2826 0.63543 48.2826 0.761946C48.2826 7.14531 48.2767 13.5282 48.2939 19.9107C48.2949 20.4204 48.1838 20.6389 47.6428 20.5813C47.2347 20.5374 46.8179 20.5723 46.3481 20.5723Z" fill="white"/>
<path d="M159.357 24.2711C159.357 25.3395 159.345 26.4087 159.364 27.4766C159.371 27.843 159.274 27.9791 158.882 27.9822C157.396 27.9945 157.396 28.0085 157.396 26.5312C157.396 24.6842 157.406 22.8368 157.389 20.9899C157.384 20.599 157.477 20.453 157.898 20.453C159.357 20.4525 159.357 20.4367 159.357 21.8809V24.2711Z" fill="white"/>
</svg>
