<svg width="549" height="600" viewBox="0 0 549 600" fill="none" xmlns="http://www.w3.org/2000/svg">
<path fill-rule="evenodd" clip-rule="evenodd" d="M293.492 0C296.568 0 299.281 1.54457 300.904 3.89844C302.137 5.25715 303.012 6.9686 303.347 8.91016L315.433 79.082L453.774 119.976C458.448 121.357 461.656 125.651 461.656 130.524V151.618C461.656 151.65 461.655 151.702 461.655 151.771C461.655 151.91 461.655 152.123 461.656 152.405C461.658 152.97 461.665 153.815 461.68 154.908C461.71 157.096 461.776 160.276 461.921 164.204C462.211 172.07 462.816 182.891 464.07 194.723C465.327 206.577 467.221 219.303 470.055 231.023C472.917 242.86 476.603 253.093 481.169 260.334C489.202 273.073 503.778 282.475 517.381 288.812C524.039 291.914 530.161 294.143 534.61 295.593C536.829 296.316 538.618 296.84 539.832 297.179C540.438 297.348 540.9 297.47 541.199 297.548C541.348 297.587 541.457 297.614 541.522 297.631C541.555 297.639 541.577 297.645 541.588 297.647H541.59V297.648C546.419 298.818 549.388 303.68 548.221 308.51C547.053 313.341 542.189 316.31 537.357 315.143L539.473 306.396C537.432 314.836 537.357 315.132 537.353 315.142C537.351 315.141 537.349 315.141 537.347 315.141C537.342 315.14 537.338 315.138 537.332 315.137C537.32 315.134 537.305 315.13 537.288 315.126C537.254 315.117 537.208 315.106 537.151 315.092C537.038 315.063 536.879 315.024 536.679 314.972C536.279 314.868 535.711 314.717 534.993 314.517C533.559 314.116 531.523 313.518 529.035 312.707C524.07 311.089 517.244 308.606 509.779 305.128C495.135 298.305 476.753 287.077 465.943 269.936C459.862 260.291 455.612 247.882 452.559 235.253C449.477 222.508 447.477 208.944 446.171 196.62C444.862 184.273 444.235 173.025 443.934 164.868C443.876 163.308 443.832 161.859 443.796 160.535H424.32C424.544 163.158 424.824 166.256 425.168 169.744C426.311 181.322 428.15 197.158 430.938 214.216C433.73 231.301 437.447 249.451 442.311 265.714C447.228 282.158 453.092 295.878 459.812 304.687C473.849 323.086 493.854 334.218 510.872 340.765C519.318 344.014 526.854 346.067 532.255 347.302C534.951 347.918 537.101 348.328 538.551 348.58C539.275 348.706 539.824 348.793 540.177 348.846C540.353 348.872 540.48 348.89 540.556 348.9C540.589 348.905 540.612 348.908 540.625 348.91C545.554 349.547 549.035 354.06 548.398 358.989C547.762 363.919 543.249 367.398 538.319 366.762L539.473 357.836C538.363 366.427 538.318 366.75 538.313 366.762C538.312 366.762 538.308 366.761 538.306 366.761C538.3 366.76 538.293 366.759 538.286 366.758C538.272 366.756 538.254 366.754 538.233 366.751C538.191 366.745 538.135 366.737 538.066 366.728C537.929 366.708 537.738 366.682 537.497 366.646C537.015 366.573 536.331 366.464 535.466 366.313C533.735 366.012 531.274 365.542 528.242 364.849C522.189 363.464 513.809 361.18 504.409 357.564C485.736 350.381 462.333 337.667 445.501 315.604C436.786 304.182 430.176 287.96 425.065 270.872C419.901 253.602 416.034 234.628 413.173 217.119C410.307 199.582 408.423 183.351 407.255 171.512C406.833 167.239 406.504 163.532 406.256 160.535H386.414C386.748 163.859 387.184 167.951 387.74 172.664C389.334 186.178 391.896 204.768 395.762 225.083C403.596 266.252 416.456 312.581 436.279 339.045C452.135 360.212 478.092 375.92 500.946 386.45C512.244 391.655 522.511 395.474 529.944 397.986C533.656 399.241 536.65 400.166 538.697 400.772C539.721 401.076 540.507 401.299 541.027 401.444C541.287 401.517 541.48 401.57 541.604 401.604C541.665 401.62 541.709 401.632 541.735 401.639C541.746 401.642 541.754 401.643 541.759 401.645C546.566 402.908 549.44 407.829 548.177 412.637C546.914 417.444 541.993 420.317 537.186 419.054L539.473 410.35L537.181 419.053C537.179 419.052 537.176 419.051 537.174 419.051C537.169 419.05 537.163 419.048 537.156 419.046C537.142 419.042 537.122 419.038 537.099 419.031C537.052 419.019 536.986 419.001 536.903 418.979C536.737 418.934 536.499 418.868 536.194 418.783C535.585 418.613 534.704 418.364 533.583 418.031C531.341 417.367 528.129 416.373 524.181 415.038C516.293 412.372 505.414 408.327 493.414 402.798C469.674 391.859 440.432 374.613 421.873 349.836C399.304 319.706 385.906 269.582 378.078 228.447C374.113 207.611 371.494 188.585 369.864 174.772C369.191 169.065 368.688 164.24 368.326 160.535H329.463L401.596 579.323H536.793C542.316 579.323 546.793 583.8 546.793 589.323C546.793 594.846 542.316 599.323 536.793 599.323H10C4.47729 599.323 0.000230908 594.846 0 589.323C0 583.8 4.47715 579.323 10 579.323H144.308L217.486 160.535H180.61C180.249 164.24 179.745 169.065 179.072 174.772C177.443 188.585 174.822 207.611 170.857 228.447C163.03 269.582 149.632 319.706 127.063 349.836C108.504 374.613 79.2628 391.859 55.5225 402.798C43.5229 408.327 32.6439 412.372 24.7559 415.038C20.8074 416.373 17.5959 417.367 15.3535 418.031C14.2324 418.364 13.3519 418.613 12.7422 418.783C12.4374 418.868 12.1995 418.934 12.0332 418.979C11.9504 419.001 11.885 419.019 11.8379 419.031C11.8144 419.038 11.7947 419.042 11.7803 419.046C11.7734 419.048 11.7674 419.05 11.7627 419.051C11.7604 419.051 11.7572 419.052 11.7559 419.053L9.46387 410.35L11.751 419.054C6.9437 420.317 2.02305 417.444 0.759766 412.637C-0.503202 407.829 2.36951 402.908 7.17676 401.645H7.17773C7.18234 401.643 7.19001 401.641 7.2002 401.639C7.22628 401.632 7.27085 401.62 7.33203 401.604C7.45535 401.57 7.64938 401.517 7.90918 401.444C8.4292 401.299 9.2152 401.076 10.2383 400.772C12.2854 400.166 15.2793 399.241 18.9912 397.986C26.425 395.473 36.693 391.655 47.9902 386.45C70.8441 375.92 96.8016 360.212 112.657 339.045C132.48 312.581 145.341 266.252 153.175 225.083C157.04 204.768 159.602 186.178 161.196 172.664C161.752 167.951 162.189 163.859 162.522 160.535H142.68C142.431 163.532 142.103 167.239 141.682 171.512C140.513 183.351 138.629 199.582 135.763 217.119C132.901 234.628 129.036 253.602 123.871 270.872C118.761 287.96 112.15 304.182 103.436 315.604C86.6037 337.667 63.2003 350.381 44.5273 357.564C35.1278 361.18 26.7479 363.464 20.6943 364.849C17.663 365.542 15.2011 366.012 13.4707 366.313C12.6053 366.464 11.9214 366.573 11.4395 366.646C11.1987 366.682 11.0079 366.708 10.8701 366.728C10.8014 366.737 10.7453 366.745 10.7031 366.751C10.6821 366.754 10.6637 366.756 10.6494 366.758C10.6425 366.759 10.6362 366.76 10.6309 366.761C10.6283 366.761 10.6245 366.762 10.623 366.762C10.6188 366.753 10.5801 366.476 9.46387 357.836L10.6172 366.762C5.6876 367.399 1.17497 363.919 0.538086 358.989C-0.0983991 354.06 3.38216 349.547 8.31152 348.91C8.32481 348.908 8.34817 348.905 8.38086 348.9C8.45659 348.89 8.58388 348.872 8.75977 348.846C9.11233 348.793 9.6614 348.706 10.3857 348.58C11.8354 348.328 13.9862 347.918 16.6816 347.302C22.0827 346.066 29.619 344.013 38.0645 340.765C55.0821 334.218 75.0872 323.086 89.125 304.687C95.8448 295.878 101.708 282.158 106.626 265.714C111.489 249.451 115.207 231.301 117.999 214.216C120.787 197.158 122.626 181.322 123.769 169.744C124.113 166.256 124.391 163.158 124.615 160.535H105.141C105.104 161.859 105.061 163.308 105.003 164.868C104.702 173.025 104.074 184.273 102.766 196.62C101.459 208.944 99.4593 222.508 96.3779 235.253C93.3246 247.882 89.0748 260.291 82.9932 269.936C72.1836 287.077 53.8006 298.305 39.1562 305.128C31.6913 308.606 24.8666 311.089 19.9014 312.707C17.4133 313.518 15.3767 314.116 13.9424 314.517C13.2252 314.717 12.6567 314.868 12.2568 314.972C12.0571 315.023 11.8989 315.063 11.7852 315.092C11.7284 315.106 11.682 315.117 11.6475 315.126C11.6305 315.13 11.6159 315.134 11.6045 315.137C11.599 315.138 11.594 315.14 11.5898 315.141C11.5878 315.141 11.5843 315.141 11.583 315.142C11.5768 315.126 11.4867 314.764 9.46387 306.396L11.5781 315.143C6.74684 316.31 1.88373 313.341 0.71582 308.51C-0.451658 303.679 2.51697 298.817 7.34668 297.648V297.647H7.34863C7.35968 297.645 7.38192 297.639 7.41406 297.631C7.47956 297.614 7.58839 297.586 7.7373 297.548C8.03606 297.47 8.49764 297.348 9.10352 297.179C10.3171 296.84 12.1062 296.316 14.3252 295.593C18.7748 294.143 24.8965 291.914 31.5547 288.812C45.1576 282.475 59.7343 273.073 67.7676 260.334C72.3334 253.093 76.02 242.86 78.8818 231.023C81.7156 219.303 83.6096 206.577 84.8662 194.723C86.1204 182.891 86.7253 172.07 87.0156 164.204C87.1606 160.276 87.2269 157.096 87.2568 154.908C87.2718 153.815 87.2771 152.97 87.2793 152.405C87.2804 152.123 87.2804 151.91 87.2803 151.771V130.52C87.2805 125.658 90.4726 121.372 95.1309 119.979L231.705 79.1621L243.985 8.88574C244.62 5.25286 247.143 2.4255 250.368 1.22949C251.701 0.449278 253.251 2.19643e-05 254.907 0H293.492ZM178.183 579.323H368.123L273.277 493.721L178.183 579.323ZM167.099 565.08L259.843 481.596L192.333 420.666L167.099 565.08ZM286.728 481.613L378.781 564.695L354.035 421.024L286.728 481.613ZM273.293 469.488L334.352 414.526H212.396L273.293 469.488ZM210.328 396.526H336.352L273.104 332.104L210.328 396.526ZM199.033 382.326L260.49 319.258L217.674 275.646L199.033 382.326ZM285.669 319.21L347.313 381.998L328.864 274.883L285.669 319.21ZM273.056 306.362L310.205 268.24H235.628L273.056 306.362ZM541.594 297.648C541.595 297.649 541.595 297.649 541.596 297.649C541.595 297.649 541.593 297.648 541.59 297.647H541.591L541.594 297.648ZM235.452 250.24H310.875L273.952 210.559L235.452 250.24ZM286.503 197.623L322.156 235.941L311.177 172.192L286.503 197.623ZM224.692 235.479L261.675 197.362L236.147 169.927L224.692 235.479ZM274.226 184.427L297.407 160.535H251.995L274.226 184.427ZM255.081 142.535H294.284L274.336 125.498L255.081 142.535ZM326.362 142.535H443.656V135.754L318.839 98.8594L326.362 142.535ZM105.28 135.733V142.535H220.632L228.241 98.9834L105.28 135.733ZM243.314 128.911L260.515 113.693L247.861 102.887L243.314 128.911ZM287.949 113.452L303.32 126.58L299.325 103.386L287.949 113.452ZM274.128 101.647L282.065 94.626H265.906L274.128 101.647ZM252.451 76.626H294.717L284.619 18H262.695L252.451 76.626Z" fill="#68707B"/>
</svg>
