<svg width="650" height="462" viewBox="0 0 650 462" fill="none" xmlns="http://www.w3.org/2000/svg">
<path d="M618 0C635.673 0 650 14.3269 650 32V430C650 447.673 635.673 462 618 462H32C14.3269 462 0 447.673 0 430V32C6.18527e-06 14.3269 14.3269 0 32 0H618ZM32 30C30.8954 30 30 30.8954 30 32V430C30 431.105 30.8954 432 32 432H618C619.105 432 620 431.105 620 430V32C620 30.8954 619.105 30 618 30H32ZM425.989 363.284C426.311 363.284 427.328 363.259 428.13 363.953C429.024 364.727 429.057 365.821 429.054 366.312L429.055 366.312C429.024 371.407 429.019 376.503 429.031 381.6L429.05 386.696V386.698C429.051 387.117 429.038 388.14 428.254 388.917C427.574 389.591 426.709 389.685 426.23 389.697L426.051 389.699C403.879 389.679 381.705 389.683 359.53 389.683C359.529 393.736 359.525 397.782 359.532 401.828L359.546 406.19V406.191C359.547 406.5 359.565 407.472 358.901 408.249C358.098 409.19 356.975 409.165 356.45 409.112H356.449C355.94 409.061 355.58 409.109 354.666 409.109H352.666V382.749H421.933V370.242H352.686V363.301H355.673C379.114 363.301 402.552 363.305 425.989 363.284ZM341.344 393.832C341.837 393.832 342.377 393.826 342.812 393.871C343.228 393.914 344.01 394.033 344.649 394.652C345.3 395.282 345.437 396.071 345.485 396.5C345.535 396.941 345.532 397.481 345.532 397.973V401.559C345.532 403.19 345.515 404.751 345.543 406.328L345.537 406.662C345.512 407.084 345.392 407.734 344.891 408.29C344.272 408.975 343.469 409.098 343.01 409.12L342.836 409.125C342.332 409.129 341.783 409.137 341.34 409.095C340.918 409.054 340.126 408.938 339.479 408.312C338.824 407.679 338.687 406.883 338.639 406.45C338.588 406.002 338.591 405.452 338.591 404.948C338.591 402.163 338.605 399.413 338.58 396.655L338.581 396.654C338.577 396.35 338.565 395.437 339.222 394.691C339.942 393.874 340.925 393.832 341.343 393.832L341.344 393.831V393.832ZM259.224 363.325C259.445 363.325 259.785 363.322 260.077 363.355C260.36 363.388 261.042 363.492 261.604 364.067C262.155 364.633 262.25 365.307 262.279 365.578C262.311 365.868 262.308 366.206 262.308 366.437V406.019C262.308 406.243 262.311 406.573 262.28 406.856C262.252 407.118 262.163 407.784 261.624 408.348C261.068 408.929 260.387 409.037 260.104 409.07C259.816 409.104 259.483 409.101 259.276 409.102C258.85 409.102 258.358 409.105 257.952 409.06C257.559 409.016 256.803 408.889 256.188 408.27C255.578 407.653 255.456 406.899 255.413 406.51C255.368 406.104 255.371 405.612 255.371 405.18V389.732H192.814V409.094H190.814C189.987 409.094 189.084 409.114 188.219 409.073H188.211C187.718 409.048 187.35 408.86 187.152 408.739C186.936 408.607 186.768 408.458 186.646 408.333C186.422 408.102 186.187 407.781 186.039 407.396L186.037 407.39C185.862 406.929 185.862 406.511 185.866 406.325C185.868 406.226 185.875 406.127 185.877 406.088C185.88 406.032 185.88 406.026 185.88 406.033C185.879 399.254 185.892 392.488 185.861 385.72C185.86 385.328 185.861 384.309 186.624 383.525C187.4 382.73 188.431 382.714 188.85 382.714H188.851C211.009 382.735 233.169 382.731 255.331 382.73V370.253C233.209 370.253 211.086 370.254 188.965 370.253V370.252C188.743 370.252 188.404 370.256 188.112 370.223C187.831 370.191 187.149 370.088 186.587 369.515C186.032 368.949 185.938 368.274 185.908 368.002C185.892 367.857 185.885 367.7 185.882 367.551L185.879 367.146C185.879 366.74 185.876 366.265 185.92 365.87C185.963 365.488 186.087 364.738 186.704 364.129C187.315 363.526 188.061 363.407 188.438 363.365C188.833 363.322 189.31 363.325 189.723 363.325H259.224ZM109.239 364.86C109.263 365.022 109.279 365.073 109.329 365.362C109.358 365.528 109.392 365.748 109.408 365.998L109.417 366.257V366.26C109.425 378.225 109.424 390.191 109.424 402.155H175.82C176.047 402.155 176.387 402.152 176.678 402.185C176.955 402.215 177.632 402.314 178.195 402.875C178.761 403.438 178.86 404.118 178.892 404.396C178.924 404.687 178.922 405.026 178.922 405.251L178.918 405.9C178.913 406.121 178.903 406.341 178.881 406.54C178.838 406.925 178.713 407.676 178.097 408.286C177.485 408.892 176.736 409.012 176.355 409.054C175.958 409.097 175.477 409.095 175.06 409.095H105.723C105.467 409.095 105.1 409.098 104.788 409.062C104.486 409.028 103.79 408.919 103.219 408.334C102.658 407.759 102.56 407.071 102.528 406.78C102.495 406.47 102.497 406.105 102.497 405.839C102.497 392.646 102.494 379.449 102.51 366.254V366.253C102.511 365.735 102.647 365.301 102.728 365.062C102.852 364.695 102.849 364.745 102.891 364.601L103.306 363.151H108.987L109.239 364.86ZM342.805 363.286C343.313 363.303 344.194 363.419 344.858 364.156C345.562 364.937 345.548 365.923 345.547 366.258L345.548 366.259C345.524 373.027 345.534 379.794 345.534 386.571C345.534 386.802 345.537 387.141 345.505 387.432C345.475 387.704 345.38 388.378 344.826 388.943C344.264 389.517 343.583 389.62 343.301 389.652C343.008 389.686 342.668 389.683 342.446 389.683H276.03V409.08H269.299V382.757H338.526V370.285H269.294V363.454L271.185 363.351C271.326 363.343 271.785 363.303 272.14 363.303C295.631 363.3 319.121 363.305 342.611 363.283L342.805 363.286ZM341.82 407.122L342.084 407.128C341.988 407.127 341.898 407.124 341.813 407.121C341.816 407.121 341.818 407.122 341.82 407.122ZM342.819 407.125C342.541 407.127 342.297 407.13 342.084 407.128L342.82 407.125C342.893 407.124 342.96 407.12 343.02 407.113C342.959 407.12 342.893 407.124 342.819 407.125ZM354.666 407.109C355.034 407.109 355.389 407.095 355.736 407.091H355.68C355.35 407.096 355.014 407.109 354.666 407.109ZM190.813 407.094C190.368 407.094 189.943 407.098 189.53 407.099L190.814 407.094V387.732H190.813V407.094ZM67 379C74.732 379 81 385.268 81 393C81 400.732 74.732 407 67 407C59.268 407 53 400.732 53 393C53 385.268 59.268 379 67 379ZM583 379C590.732 379 597 385.268 597 393C597 400.732 590.732 407 583 407C575.268 407 569 400.732 569 393C569 385.268 575.268 379 583 379ZM343.526 403.963C343.525 404.764 343.528 405.565 343.542 406.366H343.543C343.536 405.966 343.532 405.566 343.529 405.165C343.527 404.764 343.527 404.364 343.527 403.963L343.532 401.559L343.526 403.963ZM175.819 404.155C176.089 404.155 176.293 404.156 176.446 404.172C176.371 404.164 176.284 404.159 176.184 404.157L175.82 404.155H175.819ZM107.423 403.068V404.155H107.424V403.068C107.424 390.799 107.425 378.53 107.417 366.261H107.416C107.424 378.53 107.423 390.799 107.423 403.068ZM174.019 363.307C174.813 363.307 175.727 363.29 176.61 363.329L176.611 363.328C177.18 363.351 177.587 363.594 177.78 363.729C177.997 363.879 178.156 364.045 178.262 364.168C178.415 364.347 178.554 364.554 178.664 364.773L178.763 364.995L178.767 365.003C178.952 365.48 178.941 365.912 178.935 366.078C178.931 366.168 178.924 366.264 178.922 366.288C178.92 366.309 178.92 366.318 178.92 366.318L178.919 380.656C178.919 383.049 178.921 385.442 178.924 387.835L178.938 395.013V395.014C178.938 395.36 178.948 396.353 178.272 397.142C177.455 398.096 176.31 398.072 175.749 398.013L175.747 398.012C175.272 397.961 174.952 398.01 174.019 398.01H172.019V363.307H174.019ZM140.086 363.284C140.557 363.29 141.08 363.292 141.501 363.34C141.902 363.385 142.667 363.509 143.294 364.117C143.935 364.74 144.071 365.516 144.118 365.936C144.167 366.365 144.164 366.888 144.164 367.356C144.164 376.581 144.154 385.799 144.181 395.018V395.019C144.182 395.391 144.185 396.397 143.458 397.183C142.673 398.03 141.611 398.041 141.144 398.028C140.707 398.016 140.205 398.008 139.802 397.957C139.413 397.908 138.66 397.774 138.049 397.16C137.433 396.541 137.306 395.782 137.262 395.379C137.216 394.962 137.219 394.454 137.219 393.999V380.614C137.219 375.793 137.23 370.987 137.205 366.179C137.203 365.845 137.198 364.888 137.895 364.126C138.644 363.307 139.653 363.279 140.086 363.284ZM357.53 388.733C357.53 391.645 357.528 394.556 357.528 397.467L357.531 388.733V387.683H357.53V388.733ZM141.586 396.011C141.476 396.028 141.347 396.032 141.197 396.028L141.198 396.029C141.348 396.033 141.476 396.028 141.586 396.011ZM176.937 395.018C176.937 395.201 176.926 395.36 176.9 395.493C176.913 395.429 176.923 395.36 176.929 395.284L176.938 395.018C176.931 392.624 176.927 390.23 176.924 387.837C176.927 390.231 176.93 392.624 176.937 395.018ZM342.805 387.681L343.015 387.671C343.026 387.67 343.037 387.667 343.048 387.666C342.977 387.673 342.897 387.679 342.805 387.681ZM343.533 386.573C343.533 386.834 343.532 387.034 343.518 387.187C343.524 387.115 343.53 387.033 343.532 386.938L343.533 386.573ZM188.848 384.714C211.307 384.735 233.767 384.731 256.228 384.731H256.229C244.998 384.731 233.768 384.732 222.538 384.73C211.308 384.729 200.078 384.724 188.849 384.714H188.848ZM525 328C537.703 328 548 338.297 548 351C548 363.703 537.703 374 525 374C512.297 374 502 363.703 502 351C502 338.297 512.297 328 525 328ZM142.163 367.356C142.163 369.368 142.164 371.379 142.163 373.391L142.164 367.356C142.164 367.097 142.163 366.871 142.159 366.673L142.163 367.356ZM427.054 366.301C427.046 367.614 427.042 368.928 427.037 370.242C427.042 368.928 427.047 367.615 427.055 366.301C427.055 366.285 427.053 366.269 427.053 366.254C427.053 366.269 427.054 366.285 427.054 366.301ZM259.621 365.328C259.608 365.328 259.595 365.327 259.582 365.327C259.478 365.325 259.359 365.325 259.224 365.325H259.223C259.376 365.325 259.508 365.325 259.621 365.328ZM525 339C518.373 339 513 344.373 513 351C513 357.627 518.373 363 525 363C531.627 363 537 357.627 537 351C537 344.373 531.627 339 525 339ZM67 57C74.732 57 81 63.268 81 71C81 78.732 74.732 85 67 85C59.268 85 53 78.732 53 71C53 63.268 59.268 57 67 57ZM583 57C590.732 57 597 63.268 597 71C597 78.732 590.732 85 583 85C575.268 85 569 78.732 569 71C569 63.268 575.268 57 583 57Z" fill="#68707B"/>
</svg>
