<svg width="650" height="462" viewBox="0 0 650 462" fill="none" xmlns="http://www.w3.org/2000/svg">
<path d="M618 0C635.673 0 650 14.3269 650 32V430C650 447.673 635.673 462 618 462H32C14.3269 462 0 447.673 0 430V32C6.18527e-06 14.3269 14.3269 0 32 0H618ZM32 30C30.8954 30 30 30.8954 30 32V430C30 431.105 30.8954 432 32 432H618C619.105 432 620 431.105 620 430V32C620 30.8954 619.105 30 618 30H32ZM427.924 362.13C428.206 362.13 429.599 362.074 430.719 363.04C431.98 364.128 431.996 365.643 431.992 366.168L431.993 366.169C431.952 373.008 431.959 379.851 431.993 386.696V386.711C431.993 387.13 432 388.542 430.902 389.634C429.81 390.72 428.404 390.712 427.985 390.712H427.982C405.971 390.692 383.959 390.697 361.944 390.697C361.942 395.923 361.935 401.133 361.959 406.346V406.359C361.959 406.608 361.948 406.99 361.865 407.404C361.78 407.827 361.584 408.465 361.077 409.062C359.934 410.406 358.35 410.336 357.758 410.277L357.736 410.275C357.294 410.228 357.096 410.278 356.053 410.278H353.053V381.744H422.848V371.111H353.08V362.15H357.074C380.691 362.15 404.306 362.15 427.921 362.13H427.924ZM259.894 362.172C260.736 362.172 261.916 362.391 262.857 363.35C263.788 364.298 263.99 365.468 263.99 366.289V406.169C263.99 406.962 263.803 408.113 262.898 409.059C261.97 410.03 260.793 410.259 259.948 410.259C258.838 410.259 257.456 409.974 256.377 408.884C255.303 407.799 255.029 406.42 255.029 405.319V390.74H193.97V410.245H190.97C190.174 410.245 189.205 410.267 188.295 410.221V410.219C187.576 410.182 187.043 409.913 186.759 409.738C186.449 409.548 186.216 409.336 186.055 409.17C185.753 408.858 185.463 408.452 185.267 407.98L185.255 407.952L185.244 407.924C184.984 407.262 184.99 406.668 184.995 406.442C184.998 406.32 185.006 406.196 185.008 406.166C185.01 406.123 185.01 406.126 185.01 406.149C185.01 399.324 185.022 392.52 184.988 385.713V385.697C184.988 385.302 184.973 383.91 186.03 382.816C187.117 381.693 188.538 381.69 188.982 381.69H188.984C210.985 381.71 232.986 381.71 254.988 381.71V371.126H189.105C188.263 371.126 187.083 370.907 186.142 369.948C185.21 369 185.009 367.83 185.009 367.009C185.009 365.926 185.286 364.564 186.363 363.498C187.435 362.438 188.793 362.172 189.866 362.172H259.894ZM109.75 364.561C109.773 364.715 109.776 364.695 109.837 365.043C109.879 365.282 109.94 365.67 109.94 366.115L109.947 401.297H175.864C176.692 401.297 177.865 401.504 178.812 402.445C179.762 403.39 179.975 404.565 179.975 405.4C179.975 406.49 179.695 407.857 178.614 408.927C177.539 409.99 176.177 410.258 175.097 410.258H105.233C104.343 410.258 103.128 410.025 102.164 409.04C101.212 408.067 101 406.863 101 405.997C101 392.702 101 379.405 101.014 366.107C101.014 365.419 101.196 364.856 101.284 364.595C101.326 364.47 101.386 364.309 101.4 364.268C101.427 364.192 101.429 364.182 101.425 364.197L102.035 362H109.371L109.75 364.561ZM343.916 362.138C344.401 362.138 345.833 362.16 346.9 363.333C347.893 364.424 347.862 365.779 347.862 366.111V366.123C347.835 372.941 347.848 379.755 347.848 386.582C347.848 387.403 347.646 388.573 346.715 389.521C345.774 390.48 344.594 390.699 343.752 390.699H277.82V410.245H269.059V381.752H338.812V371.16H269.059V362.346L271.909 362.203C271.996 362.199 272.53 362.158 272.908 362.158C296.58 362.158 320.243 362.158 343.913 362.138H343.916ZM259.716 407.251C259.791 407.256 259.868 407.259 259.948 407.259C260.031 407.259 260.109 407.253 260.183 407.242C260.109 407.253 260.031 407.258 259.948 407.258C259.79 407.258 259.641 407.247 259.502 407.228C259.571 407.237 259.642 407.246 259.716 407.251ZM190.969 407.244C190.52 407.244 190.092 407.249 189.675 407.249V407.25C190.092 407.25 190.521 407.245 190.97 407.245V387.74H258.029V387.739H190.969V407.244ZM272.059 407.245H274.82V407.244H272.059V407.245ZM67 379C74.732 379 81 385.268 81 393C81 400.732 74.732 407 67 407C59.268 407 53 400.732 53 393C53 385.268 59.268 379 67 379ZM583 379C590.732 379 597 385.268 597 393C597 400.732 590.732 407 583 407C575.268 407 569 400.732 569 393C569 385.268 575.268 379 583 379ZM174.049 362.157C174.813 362.157 175.799 362.136 176.727 362.182L176.726 362.183C177.533 362.221 178.113 362.559 178.386 362.747C178.708 362.969 178.936 363.209 179.076 363.374C179.351 363.697 179.573 364.067 179.724 364.429C180.015 365.128 179.996 365.758 179.989 365.962C179.986 366.056 179.978 366.154 179.976 366.194C179.976 375.832 179.969 385.454 179.996 395.084V395.093C179.996 395.417 180.031 396.769 179.094 397.868C177.937 399.224 176.336 399.16 175.686 399.09L175.678 399.089C175.272 399.044 175.119 399.094 174.049 399.094H171.049V362.157H174.049ZM139.875 362.13C140.324 362.136 140.913 362.138 141.4 362.193C141.858 362.245 142.908 362.401 143.782 363.253C144.677 364.124 144.846 365.191 144.901 365.678C144.958 366.179 144.954 366.773 144.954 367.221C144.954 376.517 144.947 385.804 144.975 395.091V395.1C144.975 395.469 144.997 396.84 143.99 397.936C142.891 399.131 141.425 399.126 140.911 399.113H140.905C140.494 399.102 139.924 399.092 139.457 399.033C139.012 398.977 137.974 398.811 137.117 397.951C136.252 397.083 136.095 396.035 136.043 395.568C135.989 395.082 135.993 394.505 135.993 394.071V381.827L135.986 381.82V380.577C135.986 375.714 136 370.879 135.973 366.038V366.021C135.973 365.697 135.946 364.377 136.919 363.307C137.977 362.142 139.388 362.125 139.865 362.13H139.875ZM176.995 395.093C176.995 395.381 176.972 395.608 176.899 395.774H176.9C176.973 395.608 176.996 395.38 176.996 395.093H176.995ZM343.942 387.688C343.882 387.695 343.818 387.698 343.751 387.698L343.752 387.699C343.819 387.699 343.882 387.695 343.942 387.688ZM176.975 366.151C176.975 370.976 176.973 375.799 176.975 380.622C176.973 375.799 176.976 370.976 176.976 366.151C176.976 366.055 176.987 365.954 176.99 365.856L176.975 366.151ZM344.853 365.859C344.859 365.936 344.861 366.019 344.861 366.11C344.848 369.523 344.844 372.936 344.844 376.349L344.848 371.23C344.85 369.524 344.855 367.818 344.862 366.111C344.862 366.02 344.859 365.936 344.853 365.859ZM525 328C537.703 328 548 338.297 548 351C548 363.703 537.703 374 525 374C512.297 374 502 363.703 502 351C502 338.297 512.297 328 525 328ZM189.105 368.126H257.988V368.125H189.104L189.105 368.126ZM176.802 365.331C176.798 365.327 176.795 365.322 176.792 365.318C176.775 365.298 176.757 365.28 176.739 365.263H176.738C176.76 365.283 176.781 365.306 176.802 365.331ZM175.954 365.157C176.162 365.161 176.37 365.167 176.577 365.178H176.578C176.371 365.167 176.163 365.161 175.954 365.157ZM525 339C518.373 339 513 344.373 513 351C513 357.627 518.373 363 525 363C531.627 363 537 357.627 537 351C537 344.373 531.627 339 525 339ZM67 57C74.732 57 81 63.268 81 71C81 78.732 74.732 85 67 85C59.268 85 53 78.732 53 71C53 63.268 59.268 57 67 57ZM583 57C590.732 57 597 63.268 597 71C597 78.732 590.732 85 583 85C575.268 85 569 78.732 569 71C569 63.268 575.268 57 583 57Z" fill="#68707B"/>
</svg>
